<svg width="15" height="17" viewBox="0 0 15 17" xmlns="http://www.w3.org/2000/svg">
<g clip-path="url(#clip0_184_27)">
<line x1="7.5" y1="9" x2="7.5" y2="11" stroke="black"/>
<g filter="url(#filter0_d_184_27)">
<path d="M2 16C6.5 12 2 2.01511 2 2.01511C7.5 4.99998 7.5 9.99998 7.5 9.99998C7.5 4.99998 13 2.01511 13 2.01511C13 2.01511 8.5 12 13 16" stroke="black" stroke-width="2"/>
</g>
<g filter="url(#filter1_d_184_27)">
<path d="M2 16C4.5 11 2 2.01513 2 2.01513C7.5 5 7.5 10.7557 7.5 10.7557C7.5 5 13 2.01513 13 2.01513C13 2.01513 10.5 11 13 16" stroke="white"/>
</g>
</g>
<defs>
<filter id="filter0_d_184_27" x="-1.0308" y="-1.17907" width="17.0616" height="18.8265" filterUnits="userSpaceOnUse" color-interpolation-filters="sRGB">
<feFlood flood-opacity="0" result="BackgroundImageFix"/>
<feColorMatrix in="SourceAlpha" type="matrix" values="0 0 0 0 0 0 0 0 0 0 0 0 0 0 0 0 0 0 127 0" result="hardAlpha"/>
<feOffset/>
<feGaussianBlur stdDeviation="0.45"/>
<feComposite in2="hardAlpha" operator="out"/>
<feColorMatrix type="matrix" values="0 0 0 0 0 0 0 0 0 0 0 0 0 0 0 0 0 0 1 0"/>
<feBlend mode="normal" in2="BackgroundImageFix" result="effect1_dropShadow_184_27"/>
<feBlend mode="normal" in="SourceGraphic" in2="effect1_dropShadow_184_27" result="shape"/>
</filter>
<filter id="filter1_d_184_27" x="0.30224" y="0.11329" width="14.3955" height="17.0103" filterUnits="userSpaceOnUse" color-interpolation-filters="sRGB">
<feFlood flood-opacity="0" result="BackgroundImageFix"/>
<feColorMatrix in="SourceAlpha" type="matrix" values="0 0 0 0 0 0 0 0 0 0 0 0 0 0 0 0 0 0 127 0" result="hardAlpha"/>
<feOffset/>
<feGaussianBlur stdDeviation="0.45"/>
<feComposite in2="hardAlpha" operator="out"/>
<feColorMatrix type="matrix" values="0 0 0 0 0 0 0 0 0 0 0 0 0 0 0 0 0 0 1 0"/>
<feBlend mode="normal" in2="BackgroundImageFix" result="effect1_dropShadow_184_27"/>
<feBlend mode="normal" in="SourceGraphic" in2="effect1_dropShadow_184_27" result="shape"/>
</filter>
<clipPath id="clip0_184_27">
<rect width="15" height="17" fill="white"/>
</clipPath>
</defs>
</svg>
