<svg width="49" height="33" viewBox="0 0 49 33" fill="none" xmlns="http://www.w3.org/2000/svg">
<path d="M0 16.0096C0 15.4573 0.447715 15 1 15H47.3718C47.9241 15 48.3718 15.4573 48.3718 16.0096V16.0096C48.3718 16.5619 47.9241 17.0192 47.3718 17.0192H1C0.447716 17.0192 0 16.5619 0 16.0096V16.0096Z" fill="white"/>
<path d="M0 31.0096C0 30.4573 0.447715 30 1 30H47.3718C47.9241 30 48.3718 30.4573 48.3718 31.0096V31.0096C48.3718 31.5619 47.9241 32.0192 47.3718 32.0192H1C0.447716 32.0192 0 31.5619 0 31.0096V31.0096Z" fill="white"/>
<path d="M0 1C0 0.447715 0.447715 0 1 0H47C47.5523 0 48 0.447715 48 1V1C48 1.55228 47.5523 2 47 2H0.999999C0.447714 2 0 1.55228 0 1V1Z" fill="white"/>
</svg>
